<?xml version="1.0" standalone="no"?><!DOCTYPE svg PUBLIC "-//W3C//DTD SVG 1.1//EN" "http://www.w3.org/Graphics/SVG/1.1/DTD/svg11.dtd"><svg height="32" node-id="1" sillyvg="true" template-height="32" template-width="32" version="1.1" viewBox="0 0 32 32" width="32" xmlns="http://www.w3.org/2000/svg" xmlns:xlink="http://www.w3.org/1999/xlink"><defs node-id="213"><linearGradient gradientUnits="objectBoundingBox" id="paint24_linear_6806_5260" node-id="169" spreadMethod="pad" x1="3.68556" x2="8.8277" y1="17.9788" y2="17.419"><stop offset="0.328125" stop-color="#ee891e"></stop><stop offset="0.864583" stop-color="#fa9428" stop-opacity="0"></stop></linearGradient><linearGradient gradientUnits="objectBoundingBox" id="paint26_linear_6806_5260" node-id="175" spreadMethod="pad" x1="10.9374" x2="13.7499" y1="15.3828" y2="18.289"><stop offset="0.385833" stop-color="#83480a"></stop><stop offset="0.545035" stop-color="#cd7313"></stop><stop offset="1" stop-color="#fa9428" stop-opacity="0"></stop></linearGradient><linearGradient gradientUnits="objectBoundingBox" id="paint27_linear_6806_5260" node-id="179" spreadMethod="pad" x1="14.1876" x2="15.2539" y1="18.6015" y2="19.7181"><stop offset="0.385833" stop-color="#83480a"></stop><stop offset="0.545035" stop-color="#cd7313"></stop><stop offset="1" stop-color="#fa9428" stop-opacity="0"></stop></linearGradient><linearGradient gradientUnits="objectBoundingBox" id="paint28_linear_6806_5260" node-id="183" spreadMethod="pad" x1="15.75" x2="16.9909" y1="20.0391" y2="21.3774"><stop offset="0.385833" stop-color="#83480a"></stop><stop offset="0.545035" stop-color="#cd7313"></stop><stop offset="1" stop-color="#fa9428" stop-opacity="0"></stop></linearGradient><linearGradient gradientUnits="objectBoundingBox" id="paint29_linear_6806_5260" node-id="187" spreadMethod="pad" x1="17.6563" x2="18.6692" y1="22.0674" y2="23.1558"><stop offset="0.385833" stop-color="#83480a"></stop><stop offset="0.545035" stop-color="#cd7313"></stop><stop offset="1" stop-color="#fa9428" stop-opacity="0"></stop></linearGradient><linearGradient gradientUnits="objectBoundingBox" id="paint30_linear_6806_5260" node-id="191" spreadMethod="pad" x1="10.1574" x2="9.55528" y1="21.6562" y2="21.3379"><stop offset="0.307292" stop-color="#e27f17" stop-opacity="0.53"></stop><stop offset="1" stop-color="#fa9428" stop-opacity="0"></stop></linearGradient><linearGradient gradientUnits="objectBoundingBox" id="paint35_linear_6806_5260" node-id="206" spreadMethod="pad" x1="10.9209" x2="17.2542" y1="20.9766" y2="27.7098"><stop offset="0.328125" stop-color="#fff478" stop-opacity="0.5"></stop><stop offset="1" stop-color="#fff478" stop-opacity="0"></stop></linearGradient><radialGradient cx="0" cy="0" fx="0" fy="0" gradientUnits="objectBoundingBox" id="paint0_radial_6806_5260" node-id="90" r="1" rev="30" spreadMethod="pad"><stop offset="0" stop-color="#fff478"></stop><stop offset="0.474827" stop-color="#ffb02e"></stop><stop offset="1" stop-color="#f70a8d"></stop></radialGradient><radialGradient cx="0" cy="0" fx="0" fy="0" gradientUnits="objectBoundingBox" id="paint1_radial_6806_5260" node-id="94" r="1" rev="29" spreadMethod="pad"><stop offset="0" stop-color="#fff478"></stop><stop offset="0.474827" stop-color="#ffb02e"></stop><stop offset="1" stop-color="#f70a8d"></stop></radialGradient><radialGradient cx="0" cy="0" fx="0" fy="0" gradientUnits="objectBoundingBox" id="paint2_radial_6806_5260" node-id="98" r="1" rev="28" spreadMethod="pad"><stop offset="0.787821" stop-color="#f59639" stop-opacity="0"></stop><stop offset="0.972509" stop-color="#ff7dce"></stop></radialGradient><radialGradient cx="0" cy="0" fx="0" fy="0" gradientUnits="objectBoundingBox" id="paint3_radial_6806_5260" node-id="101" r="1" rev="27" spreadMethod="pad"><stop offset="0.314853" stop-color="#000000" stop-opacity="0"></stop><stop offset="1" stop-color="#000000"></stop></radialGradient><radialGradient cx="0" cy="0" fx="0" fy="0" gradientUnits="objectBoundingBox" id="paint4_radial_6806_5260" node-id="104" r="1" rev="26" spreadMethod="pad"><stop offset="0.507903" stop-color="#7d6133" stop-opacity="0"></stop><stop offset="1" stop-color="#715b32"></stop></radialGradient><radialGradient cx="0" cy="0" fx="0" fy="0" gradientUnits="objectBoundingBox" id="paint5_radial_6806_5260" node-id="107" r="1" rev="25" spreadMethod="pad"><stop offset="0" stop-color="#ffb849"></stop><stop offset="1" stop-color="#ffb847" stop-opacity="0"></stop></radialGradient><radialGradient cx="0" cy="0" fx="0" fy="0" gradientUnits="objectBoundingBox" id="paint6_radial_6806_5260" node-id="110" r="1" rev="24" spreadMethod="pad"><stop offset="0" stop-color="#ffa64b"></stop><stop offset="0.900412" stop-color="#ffae46" stop-opacity="0"></stop></radialGradient><radialGradient cx="0" cy="0" fx="0" fy="0" gradientUnits="objectBoundingBox" id="paint7_radial_6806_5260" node-id="113" r="1" rev="23" spreadMethod="pad"><stop offset="0.185425" stop-color="#000000" stop-opacity="0"></stop><stop offset="1" stop-color="#000000" stop-opacity="0.4"></stop></radialGradient><radialGradient cx="0" cy="0" fx="0" fy="0" gradientUnits="objectBoundingBox" id="paint8_radial_6806_5260" node-id="116" r="1" rev="22" spreadMethod="pad"><stop offset="0" stop-color="#fff478"></stop><stop offset="0.474827" stop-color="#ffb02e"></stop><stop offset="1" stop-color="#f70a8d"></stop></radialGradient><radialGradient cx="0" cy="0" fx="0" fy="0" gradientUnits="objectBoundingBox" id="paint9_radial_6806_5260" node-id="120" r="1" rev="21" spreadMethod="pad"><stop offset="0" stop-color="#fff478"></stop><stop offset="0.474827" stop-color="#ffb02e"></stop><stop offset="1" stop-color="#f70a8d"></stop></radialGradient><radialGradient cx="0" cy="0" fx="0" fy="0" gradientUnits="objectBoundingBox" id="paint10_radial_6806_5260" node-id="124" r="1" rev="20" spreadMethod="pad"><stop offset="0.787821" stop-color="#f59639" stop-opacity="0"></stop><stop offset="0.972509" stop-color="#ff7dce"></stop></radialGradient><radialGradient cx="0" cy="0" fx="0" fy="0" gradientUnits="objectBoundingBox" id="paint11_radial_6806_5260" node-id="127" r="1" rev="19" spreadMethod="pad"><stop offset="0.314853" stop-color="#000000" stop-opacity="0"></stop><stop offset="1" stop-color="#000000"></stop></radialGradient><radialGradient cx="0" cy="0" fx="0" fy="0" gradientUnits="objectBoundingBox" id="paint12_radial_6806_5260" node-id="130" r="1" rev="18" spreadMethod="pad"><stop offset="0.507903" stop-color="#7d6133" stop-opacity="0"></stop><stop offset="1" stop-color="#715b32"></stop></radialGradient><radialGradient cx="0" cy="0" fx="0" fy="0" gradientUnits="objectBoundingBox" id="paint13_radial_6806_5260" node-id="133" r="1" rev="17" spreadMethod="pad"><stop offset="0" stop-color="#ffb849"></stop><stop offset="1" stop-color="#ffb847" stop-opacity="0"></stop></radialGradient><radialGradient cx="0" cy="0" fx="0" fy="0" gradientUnits="objectBoundingBox" id="paint14_radial_6806_5260" node-id="136" r="1" rev="16" spreadMethod="pad"><stop offset="0" stop-color="#ffa64b"></stop><stop offset="0.900412" stop-color="#ffae46" stop-opacity="0"></stop></radialGradient><radialGradient cx="0" cy="0" fx="0" fy="0" gradientUnits="objectBoundingBox" id="paint15_radial_6806_5260" node-id="139" r="1" rev="15" spreadMethod="pad"><stop offset="0.185425" stop-color="#000000" stop-opacity="0"></stop><stop offset="1" stop-color="#000000" stop-opacity="0.4"></stop></radialGradient><radialGradient cx="0" cy="0" fx="0" fy="0" gradientUnits="objectBoundingBox" id="paint16_radial_6806_5260" node-id="142" r="1" rev="14" spreadMethod="pad"><stop offset="0.307292" stop-color="#c16a0e" stop-opacity="0.53"></stop><stop offset="1" stop-color="#fa9428" stop-opacity="0"></stop></radialGradient><radialGradient cx="0" cy="0" fx="0" fy="0" gradientUnits="objectBoundingBox" id="paint17_radial_6806_5260" node-id="145" r="1" rev="13" spreadMethod="pad"><stop offset="0" stop-color="#ff63c4" stop-opacity="0.5"></stop><stop offset="1" stop-color="#f59639" stop-opacity="0"></stop></radialGradient><radialGradient cx="0" cy="0" fx="0" fy="0" gradientUnits="objectBoundingBox" id="paint18_radial_6806_5260" node-id="148" r="1" rev="12" spreadMethod="pad"><stop offset="0" stop-color="#e840a8" stop-opacity="0.5"></stop><stop offset="1" stop-color="#f59639" stop-opacity="0"></stop></radialGradient><radialGradient cx="0" cy="0" fx="0" fy="0" gradientUnits="objectBoundingBox" id="paint19_radial_6806_5260" node-id="151" r="1" rev="11" spreadMethod="pad"><stop offset="0" stop-color="#ca7a1b"></stop><stop offset="0.633527" stop-color="#ca7a1b" stop-opacity="0"></stop></radialGradient><radialGradient cx="0" cy="0" fx="0" fy="0" gradientUnits="objectBoundingBox" id="paint20_radial_6806_5260" node-id="154" r="1" rev="10" spreadMethod="pad"><stop offset="0" stop-color="#ca7a1b"></stop><stop offset="0.633527" stop-color="#ca7a1b" stop-opacity="0"></stop></radialGradient><radialGradient cx="0" cy="0" fx="0" fy="0" gradientUnits="objectBoundingBox" id="paint21_radial_6806_5260" node-id="157" r="1" rev="9" spreadMethod="pad"><stop offset="0.166667" stop-color="#482641"></stop><stop offset="0.276042" stop-color="#503a4a"></stop><stop offset="0.401042" stop-color="#483637"></stop></radialGradient><radialGradient cx="0" cy="0" fx="0" fy="0" gradientUnits="objectBoundingBox" id="paint22_radial_6806_5260" node-id="161" r="1" rev="8" spreadMethod="pad"><stop offset="0.166667" stop-color="#482641"></stop><stop offset="0.276042" stop-color="#503a4a"></stop><stop offset="0.401042" stop-color="#483637"></stop></radialGradient><radialGradient cx="0" cy="0" fx="0" fy="0" gradientUnits="objectBoundingBox" id="paint23_radial_6806_5260" node-id="165" r="1" rev="7" spreadMethod="pad"><stop offset="0.239583" stop-color="#ffd43c"></stop><stop offset="0.613936" stop-color="#ffb02e"></stop><stop offset="1" stop-color="#f70a8d"></stop></radialGradient><radialGradient cx="0" cy="0" fx="0" fy="0" gradientUnits="objectBoundingBox" id="paint25_radial_6806_5260" node-id="172" r="1" rev="6" spreadMethod="pad"><stop offset="0.731531" stop-color="#fd61c2" stop-opacity="0"></stop><stop offset="1" stop-color="#ff63c4"></stop></radialGradient><radialGradient cx="0" cy="0" fx="0" fy="0" gradientUnits="objectBoundingBox" id="paint31_radial_6806_5260" node-id="194" r="1" rev="5" spreadMethod="pad"><stop offset="0.328125" stop-color="#faf194" stop-opacity="0.4"></stop><stop offset="0.723958" stop-color="#fff478" stop-opacity="0"></stop></radialGradient><radialGradient cx="0" cy="0" fx="0" fy="0" gradientUnits="objectBoundingBox" id="paint32_radial_6806_5260" node-id="197" r="1" rev="4" spreadMethod="pad"><stop offset="0.328125" stop-color="#faf194" stop-opacity="0.4"></stop><stop offset="0.723958" stop-color="#fff478" stop-opacity="0"></stop></radialGradient><radialGradient cx="0" cy="0" fx="0" fy="0" gradientUnits="objectBoundingBox" id="paint33_radial_6806_5260" node-id="200" r="1" rev="3" spreadMethod="pad"><stop offset="0.328125" stop-color="#faf194" stop-opacity="0.4"></stop><stop offset="0.723958" stop-color="#fff478" stop-opacity="0"></stop></radialGradient><radialGradient cx="0" cy="0" fx="0" fy="0" gradientUnits="objectBoundingBox" id="paint34_radial_6806_5260" node-id="203" r="1" rev="2" spreadMethod="pad"><stop offset="0.328125" stop-color="#faf194" stop-opacity="0.4"></stop><stop offset="0.723958" stop-color="#fff478" stop-opacity="0"></stop></radialGradient><radialGradient cx="0" cy="0" fx="0" fy="0" gradientUnits="objectBoundingBox" id="paint36_radial_6806_5260" node-id="209" r="1" rev="1" spreadMethod="pad"><stop offset="0.328125" stop-color="#fff478" stop-opacity="0.3"></stop><stop offset="0.723958" stop-color="#fff478" stop-opacity="0"></stop></radialGradient><filter filterUnits="objectBoundingBox" height="12.25" id="filter0_f_6806_5260" node-id="49" width="12.25" x="7.68433" y="15.2188"><feFlood color-interpolation-filters="sRGB" flood-color="#000000" flood-opacity="0" result="BackgroundImageFix"></feFlood><feBlend color-interpolation-filters="sRGB" in="SourceGraphic" in2="BackgroundImageFix" mode="normal" result="shape"></feBlend><feGaussianBlur color-interpolation-filters="sRGB" in="shape" result="effect1_foregroundBlur_6806_5260" stdDeviation="0.5 0.5"></feGaussianBlur></filter><filter filterUnits="objectBoundingBox" height="5.37671" id="filter1_f_6806_5260" node-id="53" width="7.3752403" x="17.4373" y="8.87329"><feFlood color-interpolation-filters="sRGB" flood-color="#000000" flood-opacity="0" result="BackgroundImageFix"></feFlood><feBlend color-interpolation-filters="sRGB" in="SourceGraphic" in2="BackgroundImageFix" mode="normal" result="shape"></feBlend><feGaussianBlur color-interpolation-filters="sRGB" in="shape" result="effect1_foregroundBlur_6806_5260" stdDeviation="0.25 0.25"></feGaussianBlur></filter><filter filterUnits="objectBoundingBox" height="5.37671" id="filter2_f_6806_5260" node-id="57" width="7.37524" x="6.81226" y="8.87329"><feFlood color-interpolation-filters="sRGB" flood-color="#000000" flood-opacity="0" result="BackgroundImageFix"></feFlood><feBlend color-interpolation-filters="sRGB" in="SourceGraphic" in2="BackgroundImageFix" mode="normal" result="shape"></feBlend><feGaussianBlur color-interpolation-filters="sRGB" in="shape" result="effect1_foregroundBlur_6806_5260" stdDeviation="0.25 0.25"></feGaussianBlur></filter><filter filterUnits="objectBoundingBox" height="16.0909" id="filter3_i_6806_5260" node-id="61" width="15.452901" x="7.04663" y="14.0744"><feFlood color-interpolation-filters="sRGB" flood-color="#000000" flood-opacity="0" result="BackgroundImageFix"></feFlood><feBlend color-interpolation-filters="sRGB" in="SourceGraphic" in2="BackgroundImageFix" mode="normal" result="shape"></feBlend><feColorMatrix color-interpolation-filters="sRGB" in="SourceAlpha" result="hardAlpha" type="matrix" values="0 0 0 0 0 0 0 0 0 0 0 0 0 0 0 0 0 0 127 0"></feColorMatrix><feOffset color-interpolation-filters="sRGB" dx="2" dy="-2" in="hardAlpha" result="result4"></feOffset><feGaussianBlur color-interpolation-filters="sRGB" in="result4" result="result5" stdDeviation="2 2"></feGaussianBlur><feComposite color-interpolation-filters="sRGB" in="result5" in2="hardAlpha" k1="0" k2="-1" k3="1" k4="0" operator="arithmetic" result="result6"></feComposite><feColorMatrix color-interpolation-filters="sRGB" in="result6" result="result7" type="matrix" values="0 0 0 0 0 0 0 0 0 0 0 0 0 0 0 0 0 0 0.08 0"></feColorMatrix><feBlend color-interpolation-filters="sRGB" in="result7" in2="shape" mode="normal" result="effect1_innerShadow_6806_5260"></feBlend></filter><filter filterUnits="objectBoundingBox" height="2.5415592" id="filter4_f_6806_5260" node-id="70" width="2.3283691" x="18.6973" y="21.951"><feFlood color-interpolation-filters="sRGB" flood-color="#000000" flood-opacity="0" result="BackgroundImageFix"></feFlood><feBlend color-interpolation-filters="sRGB" in="SourceGraphic" in2="BackgroundImageFix" mode="normal" result="shape"></feBlend><feGaussianBlur color-interpolation-filters="sRGB" in="shape" result="effect1_foregroundBlur_6806_5260" stdDeviation="0.25 0.25"></feGaussianBlur></filter><filter filterUnits="objectBoundingBox" height="2.5415592" id="filter5_f_6806_5260" node-id="74" width="2.3283691" x="18.2505" y="19.1884"><feFlood color-interpolation-filters="sRGB" flood-color="#000000" flood-opacity="0" result="BackgroundImageFix"></feFlood><feBlend color-interpolation-filters="sRGB" in="SourceGraphic" in2="BackgroundImageFix" mode="normal" result="shape"></feBlend><feGaussianBlur color-interpolation-filters="sRGB" in="shape" result="effect1_foregroundBlur_6806_5260" stdDeviation="0.25 0.25"></feGaussianBlur></filter><filter filterUnits="objectBoundingBox" height="2.5415592" id="filter6_f_6806_5260" node-id="78" width="2.328371" x="17.3408" y="16.7548"><feFlood color-interpolation-filters="sRGB" flood-color="#000000" flood-opacity="0" result="BackgroundImageFix"></feFlood><feBlend color-interpolation-filters="sRGB" in="SourceGraphic" in2="BackgroundImageFix" mode="normal" result="shape"></feBlend><feGaussianBlur color-interpolation-filters="sRGB" in="shape" result="effect1_foregroundBlur_6806_5260" stdDeviation="0.25 0.25"></feGaussianBlur></filter><filter filterUnits="objectBoundingBox" height="2.5415592" id="filter7_f_6806_5260" node-id="82" width="2.32837" x="14.8096" y="15.7647"><feFlood color-interpolation-filters="sRGB" flood-color="#000000" flood-opacity="0" result="BackgroundImageFix"></feFlood><feBlend color-interpolation-filters="sRGB" in="SourceGraphic" in2="BackgroundImageFix" mode="normal" result="shape"></feBlend><feGaussianBlur color-interpolation-filters="sRGB" in="shape" result="effect1_foregroundBlur_6806_5260" stdDeviation="0.25 0.25"></feGaussianBlur></filter><filter filterUnits="objectBoundingBox" height="9.156561" id="filter8_f_6806_5260" node-id="86" width="8.12524" x="10.1875" y="18.7264"><feFlood color-interpolation-filters="sRGB" flood-color="#000000" flood-opacity="0" result="BackgroundImageFix"></feFlood><feBlend color-interpolation-filters="sRGB" in="SourceGraphic" in2="BackgroundImageFix" mode="normal" result="shape"></feBlend><feGaussianBlur color-interpolation-filters="sRGB" in="shape" result="effect1_foregroundBlur_6806_5260" stdDeviation="0.75 0.75"></feGaussianBlur></filter></defs><path d="M 16.00 30.00 L 19.10 29.70 L 21.60 29.10 L 23.80 28.10 L 25.70 26.70 L 27.20 25.00 L 28.40 23.10 L 29.80 18.60 L 30.00 16.00 L 29.80 13.40 L 28.40 8.90 L 27.20 7.00 L 25.70 5.30 L 23.80 3.90 L 21.60 2.90 L 19.10 2.30 L 16.00 2.00 L 12.90 2.30 L 10.40 2.90 L 8.20 3.90 L 6.30 5.30 L 4.80 7.00 L 3.60 8.90 L 2.20 13.40 L 2.00 16.00 L 2.20 18.60 L 3.60 23.10 L 4.80 25.00 L 6.30 26.70 L 8.20 28.10 L 10.40 29.10 L 12.90 29.70 L 16.00 30.00 Z" fill="url(#paint0_radial_6806_5260)" fill-rule="nonzero" node-id="542" stroke="none" target-height="28" target-width="28" target-x="2" target-y="2"></path><path d="M 16.00 30.00 L 19.10 29.70 L 21.60 29.10 L 23.80 28.10 L 25.70 26.70 L 27.20 25.00 L 28.40 23.10 L 29.80 18.60 L 30.00 16.00 L 29.80 13.40 L 28.40 8.90 L 27.20 7.00 L 25.70 5.30 L 23.80 3.90 L 21.60 2.90 L 19.10 2.30 L 16.00 2.00 L 12.90 2.30 L 10.40 2.90 L 8.20 3.90 L 6.30 5.30 L 4.80 7.00 L 3.60 8.90 L 2.20 13.40 L 2.00 16.00 L 2.20 18.60 L 3.60 23.10 L 4.80 25.00 L 6.30 26.70 L 8.20 28.10 L 10.40 29.10 L 12.90 29.70 L 16.00 30.00 Z" fill="url(#paint1_radial_6806_5260)" fill-rule="nonzero" node-id="544" stroke="none" target-height="28" target-width="28" target-x="2" target-y="2"></path><path d="M 16.00 30.00 L 19.10 29.70 L 21.60 29.10 L 23.80 28.10 L 25.70 26.70 L 27.20 25.00 L 28.40 23.10 L 29.80 18.60 L 30.00 16.00 L 29.80 13.40 L 28.40 8.90 L 27.20 7.00 L 25.70 5.30 L 23.80 3.90 L 21.60 2.90 L 19.10 2.30 L 16.00 2.00 L 12.90 2.30 L 10.40 2.90 L 8.20 3.90 L 6.30 5.30 L 4.80 7.00 L 3.60 8.90 L 2.20 13.40 L 2.00 16.00 L 2.20 18.60 L 3.60 23.10 L 4.80 25.00 L 6.30 26.70 L 8.20 28.10 L 10.40 29.10 L 12.90 29.70 L 16.00 30.00 Z" fill="url(#paint2_radial_6806_5260)" fill-rule="nonzero" node-id="546" stroke="none" target-height="28" target-width="28" target-x="2" target-y="2"></path><path d="M 16.00 30.00 L 19.10 29.70 L 21.60 29.10 L 23.80 28.10 L 25.70 26.70 L 27.20 25.00 L 28.40 23.10 L 29.80 18.60 L 30.00 16.00 L 29.80 13.40 L 28.40 8.90 L 27.20 7.00 L 25.70 5.30 L 23.80 3.90 L 21.60 2.90 L 19.10 2.30 L 16.00 2.00 L 12.90 2.30 L 10.40 2.90 L 8.20 3.90 L 6.30 5.30 L 4.80 7.00 L 3.60 8.90 L 2.20 13.40 L 2.00 16.00 L 2.20 18.60 L 3.60 23.10 L 4.80 25.00 L 6.30 26.70 L 8.20 28.10 L 10.40 29.10 L 12.90 29.70 L 16.00 30.00 Z" fill="url(#paint3_radial_6806_5260)" fill-opacity="0.6" fill-rule="nonzero" node-id="548" stroke="none" target-height="28" target-width="28" target-x="2" target-y="2"></path><path d="M 16.00 30.00 L 19.10 29.70 L 21.60 29.10 L 23.80 28.10 L 25.70 26.70 L 27.20 25.00 L 28.40 23.10 L 29.80 18.60 L 30.00 16.00 L 29.80 13.40 L 28.40 8.90 L 27.20 7.00 L 25.70 5.30 L 23.80 3.90 L 21.60 2.90 L 19.10 2.30 L 16.00 2.00 L 12.90 2.30 L 10.40 2.90 L 8.20 3.90 L 6.30 5.30 L 4.80 7.00 L 3.60 8.90 L 2.20 13.40 L 2.00 16.00 L 2.20 18.60 L 3.60 23.10 L 4.80 25.00 L 6.30 26.70 L 8.20 28.10 L 10.40 29.10 L 12.90 29.70 L 16.00 30.00 Z" fill="url(#paint4_radial_6806_5260)" fill-rule="nonzero" node-id="550" stroke="none" target-height="28" target-width="28" target-x="2" target-y="2"></path><path d="M 16.00 30.00 L 19.10 29.70 L 21.60 29.10 L 23.80 28.10 L 25.70 26.70 L 27.20 25.00 L 28.40 23.10 L 29.80 18.60 L 30.00 16.00 L 29.80 13.40 L 28.40 8.90 L 27.20 7.00 L 25.70 5.30 L 23.80 3.90 L 21.60 2.90 L 19.10 2.30 L 16.00 2.00 L 12.90 2.30 L 10.40 2.90 L 8.20 3.90 L 6.30 5.30 L 4.80 7.00 L 3.60 8.90 L 2.20 13.40 L 2.00 16.00 L 2.20 18.60 L 3.60 23.10 L 4.80 25.00 L 6.30 26.70 L 8.20 28.10 L 10.40 29.10 L 12.90 29.70 L 16.00 30.00 Z" fill="url(#paint5_radial_6806_5260)" fill-rule="nonzero" node-id="552" stroke="none" target-height="28" target-width="28" target-x="2" target-y="2"></path><path d="M 16.00 30.00 L 19.10 29.70 L 21.60 29.10 L 23.80 28.10 L 25.70 26.70 L 27.20 25.00 L 28.40 23.10 L 29.80 18.60 L 30.00 16.00 L 29.80 13.40 L 28.40 8.90 L 27.20 7.00 L 25.70 5.30 L 23.80 3.90 L 21.60 2.90 L 19.10 2.30 L 16.00 2.00 L 12.90 2.30 L 10.40 2.90 L 8.20 3.90 L 6.30 5.30 L 4.80 7.00 L 3.60 8.90 L 2.20 13.40 L 2.00 16.00 L 2.20 18.60 L 3.60 23.10 L 4.80 25.00 L 6.30 26.70 L 8.20 28.10 L 10.40 29.10 L 12.90 29.70 L 16.00 30.00 Z" fill="url(#paint6_radial_6806_5260)" fill-rule="nonzero" node-id="554" stroke="none" target-height="28" target-width="28" target-x="2" target-y="2"></path><path d="M 16.00 30.00 L 19.10 29.70 L 21.60 29.10 L 23.80 28.10 L 25.70 26.70 L 27.20 25.00 L 28.40 23.10 L 29.80 18.60 L 30.00 16.00 L 29.80 13.40 L 28.40 8.90 L 27.20 7.00 L 25.70 5.30 L 23.80 3.90 L 21.60 2.90 L 19.10 2.30 L 16.00 2.00 L 12.90 2.30 L 10.40 2.90 L 8.20 3.90 L 6.30 5.30 L 4.80 7.00 L 3.60 8.90 L 2.20 13.40 L 2.00 16.00 L 2.20 18.60 L 3.60 23.10 L 4.80 25.00 L 6.30 26.70 L 8.20 28.10 L 10.40 29.10 L 12.90 29.70 L 16.00 30.00 Z" fill="url(#paint7_radial_6806_5260)" fill-rule="nonzero" node-id="556" stroke="none" target-height="28" target-width="28" target-x="2" target-y="2"></path><path d="M 16.00 30.00 L 19.10 29.70 L 21.60 29.10 L 23.80 28.10 L 25.70 26.70 L 27.20 25.00 L 28.40 23.10 L 29.80 18.60 L 30.00 16.00 L 29.80 13.40 L 28.40 8.90 L 27.20 7.00 L 25.70 5.30 L 23.80 3.90 L 21.60 2.90 L 19.10 2.30 L 16.00 2.00 L 12.90 2.30 L 10.40 2.90 L 8.20 3.90 L 6.30 5.30 L 4.80 7.00 L 3.60 8.90 L 2.20 13.40 L 2.00 16.00 L 2.20 18.60 L 3.60 23.10 L 4.80 25.00 L 6.30 26.70 L 8.20 28.10 L 10.40 29.10 L 12.90 29.70 L 16.00 30.00 Z" fill="url(#paint8_radial_6806_5260)" fill-rule="nonzero" node-id="558" stroke="none" target-height="28" target-width="28" target-x="2" target-y="2"></path><path d="M 16.00 30.00 L 19.10 29.70 L 21.60 29.10 L 23.80 28.10 L 25.70 26.70 L 27.20 25.00 L 28.40 23.10 L 29.80 18.60 L 30.00 16.00 L 29.80 13.40 L 28.40 8.90 L 27.20 7.00 L 25.70 5.30 L 23.80 3.90 L 21.60 2.90 L 19.10 2.30 L 16.00 2.00 L 12.90 2.30 L 10.40 2.90 L 8.20 3.90 L 6.30 5.30 L 4.80 7.00 L 3.60 8.90 L 2.20 13.40 L 2.00 16.00 L 2.20 18.60 L 3.60 23.10 L 4.80 25.00 L 6.30 26.70 L 8.20 28.10 L 10.40 29.10 L 12.90 29.70 L 16.00 30.00 Z" fill="url(#paint9_radial_6806_5260)" fill-rule="nonzero" node-id="560" stroke="none" target-height="28" target-width="28" target-x="2" target-y="2"></path><path d="M 16.00 30.00 L 19.10 29.70 L 21.60 29.10 L 23.80 28.10 L 25.70 26.70 L 27.20 25.00 L 28.40 23.10 L 29.80 18.60 L 30.00 16.00 L 29.80 13.40 L 28.40 8.90 L 27.20 7.00 L 25.70 5.30 L 23.80 3.90 L 21.60 2.90 L 19.10 2.30 L 16.00 2.00 L 12.90 2.30 L 10.40 2.90 L 8.20 3.90 L 6.30 5.30 L 4.80 7.00 L 3.60 8.90 L 2.20 13.40 L 2.00 16.00 L 2.20 18.60 L 3.60 23.10 L 4.80 25.00 L 6.30 26.70 L 8.20 28.10 L 10.40 29.10 L 12.90 29.70 L 16.00 30.00 Z" fill="url(#paint10_radial_6806_5260)" fill-rule="nonzero" node-id="562" stroke="none" target-height="28" target-width="28" target-x="2" target-y="2"></path><path d="M 16.00 30.00 L 19.10 29.70 L 21.60 29.10 L 23.80 28.10 L 25.70 26.70 L 27.20 25.00 L 28.40 23.10 L 29.80 18.60 L 30.00 16.00 L 29.80 13.40 L 28.40 8.90 L 27.20 7.00 L 25.70 5.30 L 23.80 3.90 L 21.60 2.90 L 19.10 2.30 L 16.00 2.00 L 12.90 2.30 L 10.40 2.90 L 8.20 3.90 L 6.30 5.30 L 4.80 7.00 L 3.60 8.90 L 2.20 13.40 L 2.00 16.00 L 2.20 18.60 L 3.60 23.10 L 4.80 25.00 L 6.30 26.70 L 8.20 28.10 L 10.40 29.10 L 12.90 29.70 L 16.00 30.00 Z" fill="url(#paint11_radial_6806_5260)" fill-opacity="0.6" fill-rule="nonzero" node-id="564" stroke="none" target-height="28" target-width="28" target-x="2" target-y="2"></path><path d="M 16.00 30.00 L 19.10 29.70 L 21.60 29.10 L 23.80 28.10 L 25.70 26.70 L 27.20 25.00 L 28.40 23.10 L 29.80 18.60 L 30.00 16.00 L 29.80 13.40 L 28.40 8.90 L 27.20 7.00 L 25.70 5.30 L 23.80 3.90 L 21.60 2.90 L 19.10 2.30 L 16.00 2.00 L 12.90 2.30 L 10.40 2.90 L 8.20 3.90 L 6.30 5.30 L 4.80 7.00 L 3.60 8.90 L 2.20 13.40 L 2.00 16.00 L 2.20 18.60 L 3.60 23.10 L 4.80 25.00 L 6.30 26.70 L 8.20 28.10 L 10.40 29.10 L 12.90 29.70 L 16.00 30.00 Z" fill="url(#paint12_radial_6806_5260)" fill-rule="nonzero" node-id="566" stroke="none" target-height="28" target-width="28" target-x="2" target-y="2"></path><path d="M 16.00 30.00 L 19.10 29.70 L 21.60 29.10 L 23.80 28.10 L 25.70 26.70 L 27.20 25.00 L 28.40 23.10 L 29.80 18.60 L 30.00 16.00 L 29.80 13.40 L 28.40 8.90 L 27.20 7.00 L 25.70 5.30 L 23.80 3.90 L 21.60 2.90 L 19.10 2.30 L 16.00 2.00 L 12.90 2.30 L 10.40 2.90 L 8.20 3.90 L 6.30 5.30 L 4.80 7.00 L 3.60 8.90 L 2.20 13.40 L 2.00 16.00 L 2.20 18.60 L 3.60 23.10 L 4.80 25.00 L 6.30 26.70 L 8.20 28.10 L 10.40 29.10 L 12.90 29.70 L 16.00 30.00 Z" fill="url(#paint13_radial_6806_5260)" fill-rule="nonzero" node-id="568" stroke="none" target-height="28" target-width="28" target-x="2" target-y="2"></path><path d="M 16.00 30.00 L 19.10 29.70 L 21.60 29.10 L 23.80 28.10 L 25.70 26.70 L 27.20 25.00 L 28.40 23.10 L 29.80 18.60 L 30.00 16.00 L 29.80 13.40 L 28.40 8.90 L 27.20 7.00 L 25.70 5.30 L 23.80 3.90 L 21.60 2.90 L 19.10 2.30 L 16.00 2.00 L 12.90 2.30 L 10.40 2.90 L 8.20 3.90 L 6.30 5.30 L 4.80 7.00 L 3.60 8.90 L 2.20 13.40 L 2.00 16.00 L 2.20 18.60 L 3.60 23.10 L 4.80 25.00 L 6.30 26.70 L 8.20 28.10 L 10.40 29.10 L 12.90 29.70 L 16.00 30.00 Z" fill="url(#paint14_radial_6806_5260)" fill-rule="nonzero" node-id="570" stroke="none" target-height="28" target-width="28" target-x="2" target-y="2"></path><path d="M 16.00 30.00 L 19.10 29.70 L 21.60 29.10 L 23.80 28.10 L 25.70 26.70 L 27.20 25.00 L 28.40 23.10 L 29.80 18.60 L 30.00 16.00 L 29.80 13.40 L 28.40 8.90 L 27.20 7.00 L 25.70 5.30 L 23.80 3.90 L 21.60 2.90 L 19.10 2.30 L 16.00 2.00 L 12.90 2.30 L 10.40 2.90 L 8.20 3.90 L 6.30 5.30 L 4.80 7.00 L 3.60 8.90 L 2.20 13.40 L 2.00 16.00 L 2.20 18.60 L 3.60 23.10 L 4.80 25.00 L 6.30 26.70 L 8.20 28.10 L 10.40 29.10 L 12.90 29.70 L 16.00 30.00 Z" fill="url(#paint15_radial_6806_5260)" fill-rule="nonzero" node-id="572" stroke="none" target-height="28" target-width="28" target-x="2" target-y="2"></path><g node-id="643"><path d="M 18.90 21.30 L 18.70 22.70 L 17.40 25.00 L 15.20 26.30 L 13.80 26.50 L 11.20 25.80 L 9.40 23.90 L 8.90 22.70 L 8.70 21.30 L 9.40 18.80 L 11.20 16.90 L 13.80 16.20 L 15.20 16.40 L 17.40 17.70 L 18.70 20.00 L 18.90 21.30 Z" fill="url(#paint16_radial_6806_5260)" fill-rule="nonzero" filter="url(#filter0_f_6806_5260)" group-id="1" node-id="576" stroke="none" target-height="10.299999" target-width="10.2" target-x="8.7" target-y="16.2"></path></g><path d="M 30.00 14.80 L 29.70 16.30 L 28.80 17.60 L 27.60 18.40 L 26.00 18.80 L 24.40 18.40 L 23.20 17.60 L 22.30 16.30 L 22.00 14.80 L 22.30 13.20 L 23.20 11.90 L 24.40 11.10 L 26.00 10.80 L 27.60 11.10 L 28.80 11.90 L 29.70 13.20 L 30.00 14.80 Z" fill="url(#paint17_radial_6806_5260)" fill-rule="nonzero" node-id="579" stroke="none" target-height="7.999999" target-width="8" target-x="22" target-y="10.8"></path><path d="M 10.00 14.80 L 9.70 16.30 L 8.80 17.60 L 7.60 18.40 L 6.00 18.80 L 4.40 18.40 L 3.20 17.60 L 2.30 16.30 L 2.00 14.80 L 2.30 13.20 L 3.20 11.90 L 4.40 11.10 L 6.00 10.80 L 7.60 11.10 L 8.80 11.90 L 9.70 13.20 L 10.00 14.80 Z" fill="url(#paint18_radial_6806_5260)" fill-rule="nonzero" node-id="581" stroke="none" target-height="7.999999" target-width="8" target-x="2" target-y="10.8"></path><g node-id="644"><path d="M 18.90 11.70 L 19.90 10.60 L 21.10 10.40 L 22.60 11.20 L 23.30 12.80" fill="none" filter="url(#filter1_f_6806_5260)" group-id="2" node-id="585" stroke="url(#paint19_radial_6806_5260)" stroke-linecap="round" stroke-width="2" target-height="2.4000006" target-width="4.3999996" target-x="18.9" target-y="10.4"></path></g><g node-id="645"><path d="M 8.30 11.70 L 9.20 10.60 L 10.50 10.40 L 12.00 11.20 L 12.70 12.80" fill="none" filter="url(#filter2_f_6806_5260)" group-id="3" node-id="590" stroke="url(#paint20_radial_6806_5260)" stroke-linecap="round" stroke-width="2" target-height="2.4000006" target-width="4.3999996" target-x="8.3" target-y="10.4"></path></g><path d="M 8.00 12.00 L 8.90 10.50 L 10.50 10.00 L 12.10 10.50 L 13.00 12.00" fill="none" node-id="593" stroke="url(#paint21_radial_6806_5260)" stroke-linecap="round" stroke-width="2" target-height="2" target-width="5" target-x="8" target-y="10"></path><path d="M 19.00 12.00 L 20.00 10.50 L 21.50 10.00 L 23.00 10.50 L 24.00 12.00" fill="none" node-id="595" stroke="url(#paint22_radial_6806_5260)" stroke-linecap="round" stroke-width="2" target-height="2" target-width="5" target-x="19" target-y="10"></path><g node-id="646"><path d="M 16.20 16.40 L 14.80 16.20 L 11.20 19.70 L 11.30 18.10 L 10.70 17.30 L 9.70 17.10 L 8.80 17.70 L 7.10 24.80 L 7.40 27.20 L 8.00 28.30 L 9.90 29.80 L 12.30 30.10 L 13.90 29.70 L 15.20 28.70 L 20.10 24.40 L 20.40 23.90 L 20.40 22.90 L 19.30 22.10 L 20.00 21.20 L 20.00 20.20 L 18.90 19.40 L 19.30 18.80 L 19.30 17.80 L 19.00 17.30 L 18.00 17.00 L 16.50 17.90 L 16.60 17.10 L 16.20 16.40 Z" fill="url(#paint23_radial_6806_5260)" fill-rule="nonzero" filter="url(#filter3_i_6806_5260)" group-id="4" node-id="599" stroke="none" target-height="13.9" target-width="13.299999" target-x="7.1" target-y="16.2"></path><path d="M 16.20 16.40 L 14.80 16.20 L 11.20 19.70 L 11.30 18.10 L 10.70 17.30 L 9.70 17.10 L 8.80 17.70 L 7.10 24.80 L 7.40 27.20 L 8.00 28.30 L 9.90 29.80 L 12.30 30.10 L 13.90 29.70 L 15.20 28.70 L 20.10 24.40 L 20.40 23.90 L 20.40 22.90 L 19.30 22.10 L 20.00 21.20 L 20.00 20.20 L 18.90 19.40 L 19.30 18.80 L 19.30 17.80 L 19.00 17.30 L 18.00 17.00 L 16.50 17.90 L 16.60 17.10 L 16.20 16.40 Z" fill="url(#paint24_linear_6806_5260)" fill-rule="nonzero" filter="url(#filter3_i_6806_5260)" group-id="4" node-id="601" stroke="none" target-height="13.9" target-width="13.299999" target-x="7.1" target-y="16.2"></path><path d="M 16.20 16.40 L 14.80 16.20 L 11.20 19.70 L 11.30 18.10 L 10.70 17.30 L 9.70 17.10 L 8.80 17.70 L 7.10 24.80 L 7.40 27.20 L 8.00 28.30 L 9.90 29.80 L 12.30 30.10 L 13.90 29.70 L 15.20 28.70 L 20.10 24.40 L 20.40 23.90 L 20.40 22.90 L 19.30 22.10 L 20.00 21.20 L 20.00 20.20 L 18.90 19.40 L 19.30 18.80 L 19.30 17.80 L 19.00 17.30 L 18.00 17.00 L 16.50 17.90 L 16.60 17.10 L 16.20 16.40 Z" fill="url(#paint25_radial_6806_5260)" fill-rule="nonzero" filter="url(#filter3_i_6806_5260)" group-id="4" node-id="603" stroke="none" target-height="13.9" target-width="13.299999" target-x="7.1" target-y="16.2"></path></g><path d="M 14.30 16.50 L 15.70 16.20 L 16.50 16.90 L 16.50 17.80 L 12.10 22.70 L 10.70 23.00 L 9.80 22.40 L 9.60 22.00 L 9.70 21.50 L 14.30 16.50 Z" fill="url(#paint26_linear_6806_5260)" fill-rule="nonzero" node-id="606" stroke="none" target-height="6.799999" target-width="6.8999996" target-x="9.6" target-y="16.2"></path><path d="M 13.40 21.30 L 13.30 22.10 L 13.70 22.80 L 14.10 23.10 L 15.20 23.10 L 19.00 19.20 L 19.30 18.80 L 19.30 17.80 L 18.50 17.00 L 17.40 17.10 L 13.40 21.30 Z" fill="url(#paint27_linear_6806_5260)" fill-rule="nonzero" node-id="608" stroke="none" target-height="6.1000004" target-width="5.999999" target-x="13.3" target-y="17"></path><path d="M 14.80 23.10 L 15.80 24.30 L 16.90 24.30 L 17.30 24.00 L 19.90 21.20 L 20.00 20.20 L 19.30 19.50 L 18.10 19.70 L 14.80 23.10 Z" fill="url(#paint28_linear_6806_5260)" fill-rule="nonzero" node-id="610" stroke="none" target-height="4.799999" target-width="5.2" target-x="14.8" target-y="19.5"></path><path d="M 16.50 24.70 L 17.90 26.30 L 20.00 24.40 L 20.30 24.00 L 20.40 22.90 L 20.10 22.50 L 19.20 22.20 L 16.50 24.70 Z" fill="url(#paint29_linear_6806_5260)" fill-rule="nonzero" node-id="612" stroke="none" target-height="4.0999985" target-width="3.8999996" target-x="16.5" target-y="22.2"></path><path d="M 8.90 22.40 L 11.20 19.70 L 11.40 18.60 L 11.10 17.60 L 8.90 22.40 Z" fill="url(#paint30_linear_6806_5260)" fill-rule="nonzero" node-id="614" stroke="none" target-height="4.799999" target-width="2.5" target-x="8.9" target-y="17.6"></path><g node-id="647"><path d="M 20.20 23.90 L 19.70 23.90 L 19.30 23.50 L 19.20 22.90 L 19.50 22.50 L 20.00 22.50 L 20.40 23.00 L 20.50 23.60 L 20.20 23.90 Z" fill="url(#paint31_radial_6806_5260)" fill-rule="nonzero" filter="url(#filter4_f_6806_5260)" group-id="5" node-id="618" stroke="none" target-height="1.3999996" target-width="1.2999992" target-x="19.2" target-y="22.5"></path></g><g node-id="648"><path d="M 19.80 21.20 L 19.30 21.20 L 18.80 20.70 L 18.80 20.10 L 19.10 19.70 L 19.60 19.80 L 20.00 20.20 L 20.10 20.80 L 19.80 21.20 Z" fill="url(#paint32_radial_6806_5260)" fill-rule="nonzero" filter="url(#filter5_f_6806_5260)" group-id="6" node-id="623" stroke="none" target-height="1.5" target-width="1.3000011" target-x="18.8" target-y="19.7"></path></g><g node-id="649"><path d="M 18.80 18.70 L 18.40 18.70 L 17.90 18.30 L 17.90 17.70 L 18.20 17.30 L 18.70 17.30 L 19.10 17.80 L 19.10 18.40 L 18.80 18.70 Z" fill="url(#paint33_radial_6806_5260)" fill-rule="nonzero" filter="url(#filter6_f_6806_5260)" group-id="7" node-id="628" stroke="none" target-height="1.4000015" target-width="1.2000008" target-x="17.9" target-y="17.3"></path></g><g node-id="650"><path d="M 16.30 17.80 L 15.80 17.70 L 15.40 17.30 L 15.30 16.70 L 15.60 16.30 L 16.10 16.30 L 16.50 16.80 L 16.60 17.40 L 16.30 17.80 Z" fill="url(#paint34_radial_6806_5260)" fill-rule="nonzero" filter="url(#filter7_f_6806_5260)" group-id="8" node-id="633" stroke="none" target-height="1.5" target-width="1.3000002" target-x="15.3" target-y="16.3"></path></g><g node-id="651"><path d="M 12.40 21.00 L 14.40 22.70 L 15.40 24.00 L 16.10 25.60" fill="none" filter="url(#filter8_f_6806_5260)" group-id="9" node-id="638" stroke="url(#paint35_linear_6806_5260)" stroke-linecap="round" stroke-width="1.5" target-height="4.6000004" target-width="3.7000008" target-x="12.4" target-y="21"></path></g><path d="M 11.20 18.80 L 10.50 19.30 L 9.60 19.20 L 8.90 18.50 L 9.00 17.70 L 9.70 17.10 L 10.60 17.20 L 11.30 17.90 L 11.20 18.80 Z" fill="url(#paint36_radial_6806_5260)" fill-rule="nonzero" node-id="641" stroke="none" target-height="2.1999989" target-width="2.4000006" target-x="8.9" target-y="17.1"></path></svg>
